<svg width="321" height="1385" viewBox="0 0 321 1385" fill="none" xmlns="http://www.w3.org/2000/svg">
<path d="M161.881 0.5H307.279C307.847 0.592252 308.517 1.11487 309.247 2.28711C309.973 3.45308 310.689 5.15055 311.381 7.34668C312.763 11.7338 314.015 18.0113 315.074 25.7578C317.059 40.2767 318.357 59.8903 318.571 81.7334L318.6 86.1309L320.5 701.476L318.607 1298.92C318.532 1322.57 317.19 1343.89 315.063 1359.37C314 1367.12 312.743 1373.38 311.356 1377.75C310.662 1379.94 309.944 1381.62 309.217 1382.77C308.483 1383.93 307.813 1384.43 307.248 1384.5L161.881 1384.48H14.29C13.7281 1384.4 13.0615 1383.91 12.3301 1382.76C11.6056 1381.62 10.8893 1379.95 10.1973 1377.78C8.81496 1373.45 7.56014 1367.22 6.49707 1359.53C4.50464 1345.1 3.19514 1325.57 2.96289 1303.77L2.93066 1299.38L0.5 681.203L2.9209 85.5342C3.01634 62.0532 4.35859 40.9233 6.47461 25.5615C7.53305 17.8775 8.78337 11.6558 10.1602 7.30957C10.8494 5.13395 11.5626 3.45352 12.2852 2.2998C13.0108 1.14133 13.6758 0.623583 14.2393 0.532227L161.881 0.5Z" stroke="url(#paint0_linear_1610_655)"/>
<defs>
<linearGradient id="paint0_linear_1610_655" x1="160.5" y1="0" x2="160.5" y2="1385" gradientUnits="userSpaceOnUse">
<stop stop-color="#9B8DF1"/>
<stop offset="0.473958" stop-color="#CAD0FF"/>
<stop offset="1" stop-color="#83A9EC"/>
</linearGradient>
</defs>
</svg>
