<svg aria-hidden="true" style="position: absolute; width: 0; height: 0; overflow: hidden;" version="1.1" xmlns="http://www.w3.org/2000/svg" xmlns:xlink="http://www.w3.org/1999/xlink">
<defs>
<symbol id="icon-header" viewBox="0 0 52 32">
<path d="M-0.185 28.607v-23.37c0-0.643 0.521-1.164 1.164-1.164h50.327c0.643 0 1.164 0.521 1.164 1.164v23.375c0 0.573-0.423 1.061-0.989 1.149-19.619 3.035-31.053 2.938-50.671-0.004-0.569-0.085-0.995-0.575-0.995-1.15z"></path>
</symbol>
<symbol id="icon-plus" viewBox="0 0 32 32">
<path stroke-linejoin="miter" stroke-linecap="butt" stroke-miterlimit="4" stroke-width="1.3333" d="M0 16h32"></path>
<path stroke-linejoin="miter" stroke-linecap="butt" stroke-miterlimit="4" stroke-width="1.3333" d="M16 32v-32"></path>
</symbol>
<symbol id="icon-fb" viewBox="0 0 32 32">
<path d="M28.529 1.002h-24.086c-1.892 0-3.441 1.548-3.441 3.441v24.086c0 1.894 1.548 3.441 3.441 3.441h12.043v-12.043h-3.441v-4.258h3.441v-3.527c0-3.723 2.085-6.338 6.479-6.338l3.102 0.003v4.482h-2.059c-1.71 0-2.36 1.284-2.36 2.474v2.908h4.418l-0.977 4.256h-3.441v12.043h6.882c1.892 0 3.441-1.547 3.441-3.441v-24.086c0-1.892-1.548-3.441-3.441-3.441z"></path>
</symbol>
<symbol id="icon-insta" viewBox="0 0 32 32">
<path d="M16.482 11.322c-2.843 0-5.163 2.32-5.163 5.164s2.32 5.163 5.163 5.163 5.163-2.32 5.163-5.163c0-2.843-2.32-5.164-5.163-5.164zM31.968 16.486c0-2.138 0.019-4.257-0.101-6.391-0.12-2.479-0.686-4.679-2.498-6.492-1.817-1.817-4.013-2.378-6.492-2.498-2.138-0.12-4.257-0.101-6.391-0.101-2.138 0-4.257-0.019-6.391 0.101-2.479 0.12-4.679 0.686-6.492 2.498-1.817 1.817-2.378 4.013-2.498 6.492-0.12 2.138-0.101 4.257-0.101 6.391s-0.019 4.257 0.101 6.391c0.12 2.479 0.686 4.679 2.498 6.492 1.817 1.817 4.013 2.378 6.492 2.498 2.138 0.12 4.257 0.101 6.391 0.101 2.138 0 4.257 0.019 6.391-0.101 2.479-0.12 4.679-0.686 6.492-2.498 1.817-1.817 2.378-4.013 2.498-6.492 0.124-2.134 0.101-4.253 0.101-6.391zM16.482 24.43c-4.396 0-7.945-3.548-7.945-7.945s3.548-7.945 7.945-7.945c4.396 0 7.945 3.548 7.945 7.945s-3.548 7.945-7.945 7.945zM24.752 10.071c-1.026 0-1.855-0.829-1.855-1.855s0.829-1.855 1.855-1.855c1.026 0 1.855 0.829 1.855 1.855 0 0.244-0.047 0.485-0.141 0.71s-0.23 0.43-0.402 0.602c-0.172 0.172-0.377 0.309-0.602 0.402s-0.467 0.141-0.71 0.141z"></path>
</symbol>
<symbol id="icon-tel" viewBox="0 0 32 32">
<path d="M6.808 1.002c-3.207 0-5.806 2.6-5.806 5.806v19.355c0 3.207 2.6 5.806 5.806 5.806h19.355c3.207 0 5.806-2.6 5.806-5.806v-19.355c0-3.207-2.6-5.806-5.806-5.806h-19.355zM25.48 20.306c0.234 0.127 0.391 0.34 0.431 0.59 0.040 0.256-0.048 0.514-0.242 0.709l-2.378 2.377c-0.227 0.227-0.623 0.423-0.941 0.466-0.11 0.013-0.222 0.019-0.333 0.017-0.913 0-4.221-0.329-8.462-4.57-4.996-4.997-4.574-8.641-4.553-8.793 0.043-0.319 0.239-0.716 0.467-0.943l2.379-2.374c0.161-0.161 0.367-0.249 0.581-0.249 0.302 0 0.574 0.178 0.714 0.466l1.928 3.627c0.182 0.396 0.090 0.907-0.217 1.215l-0.873 0.873c-0.042 0.044-0.102 0.186-0.103 0.247 0 0 0 0 0 0.001 0.005 0.044 0.134 1.223 2.26 3.348 2.162 2.162 3.341 2.255 3.362 2.257 0.043-0.002 0.186-0.062 0.23-0.104l1.024-1.024c0.193-0.193 0.47-0.303 0.761-0.303 0.163-0.001 0.323 0.036 0.469 0.109l0.029 0.016 3.468 2.043z"></path>
</symbol>
<symbol id="icon-menu" viewBox="0 0 51 32">
<path stroke-linejoin="miter" stroke-linecap="butt" stroke-miterlimit="4" stroke-width="2.9091" d="M0 1.455h50.909"></path>
<path stroke-linejoin="miter" stroke-linecap="butt" stroke-miterlimit="4" stroke-width="2.9091" d="M0 16h50.909"></path>
<path stroke-linejoin="miter" stroke-linecap="butt" stroke-miterlimit="4" stroke-width="2.9091" d="M0 30.545h50.909"></path>
</symbol>

  <clipPath id="my-clip-path" clipPathUnits="objectBoundingBox"><path fill="black" d="M0,0.879 V0.042 C0,0.019,0.01,0,0.022,0 H0.978 C0.99,0,1,0.019,1,0.042 V0.879 C1,0.9,0.992,0.917,0.981,0.92 C0.608,1,0.391,1,0.019,0.92 C0.008,0.917,0,0.899,0,0.879"></path>
  </clipPath>

</defs>
</svg>
